<svg width="29" height="28" fill="none" xmlns="http://www.w3.org/2000/svg"><path d="M22.747 17.306a.075.075 0 100-.15.075.075 0 000 .15z" fill="#000"/><path d="M25.937 4.481H2.155C.99 4.481.046 5.506.046 6.771v1.932c.51.538.824 1.264.824 2.064s-.314 1.802-.824 2.342v8.247c0 1.263.944 2.287 2.108 2.287h23.783c1.165 0 2.11-1.025 2.11-2.29V6.77c0-1.265-.945-2.29-2.11-2.29v.001z" fill="url(#paint0_linear_5238_4140)"/><path d="M24.27 9.379v-.064h.026v-.013h-.066v.013h.026v.064h.015-.002zm.127 0v-.077h-.02l-.024.052-.023-.052h-.02v.077h.015V9.32l.02.05h.015l.02-.05v.058h.017z" fill="#FF9B00"/><path d="M24.7 17.058v-2.136a.484.484 0 00-.484-.485h-3.04a.484.484 0 00-.484.485v2.136c0 .268.216.485.484.485h3.04a.484.484 0 00.484-.485z" fill="url(#paint1_linear_5238_4140)"/><path d="M22.63 8.918a1.85 1.85 0 10-3.698.01 1.85 1.85 0 003.699-.01z" fill="red"/><path d="M25.001 8.911a1.85 1.85 0 10-3.698.01A1.85 1.85 0 0025 8.91z" fill="#FF7363"/><path d="M21.302 8.92c.001.57.26 1.08.667 1.418a1.847 1.847 0 00-.006-2.838c-.405.34-.663.851-.661 1.42z" fill="red"/><defs><linearGradient id="paint0_linear_5238_4140" x1="14.048" y1="4.481" x2="14.048" y2="23.642" gradientUnits="userSpaceOnUse"><stop stop-color="#BDA1FF"/><stop offset="1" stop-color="#835AE6"/></linearGradient><linearGradient id="paint1_linear_5238_4140" x1="22.696" y1="14.436" x2="22.696" y2="17.541" gradientUnits="userSpaceOnUse"><stop stop-color="#F0F0F0"/><stop offset=".46" stop-color="#DFDFDF"/><stop offset="1" stop-color="#C8C8C8"/></linearGradient></defs></svg>