<svg width="29" height="28" fill="none" xmlns="http://www.w3.org/2000/svg"><path d="M2.147 23.642C.983 23.642.04 22.618.04 21.355V6.77c0-1.265.943-2.29 2.109-2.29H25.93c1.165 0 2.109 1.025 2.109 2.29v14.584c0 1.264-.944 2.29-2.11 2.29H2.147v-.002z" fill="url(#paint0_linear_5276_5780)"/><path d="M24.263 9.379v-.064h.026v-.013h-.066v.013h.027v.064h.014-.001zm.127 0v-.077h-.02l-.024.052-.023-.052h-.02v.077h.015V9.32l.02.05h.015l.02-.05v.058h.017z" fill="#FF9B00"/><path d="M22.74 17.306a.075.075 0 100-.15.075.075 0 000 .15z" fill="#000"/><path d="M24.693 17.057V14.92a.484.484 0 00-.484-.484h-3.04a.484.484 0 00-.484.484v2.137c0 .268.217.484.484.484h3.04a.484.484 0 00.484-.484z" fill="url(#paint1_linear_5276_5780)"/><path d="M22.624 8.918a1.85 1.85 0 10-3.699.01 1.85 1.85 0 003.699-.01z" fill="red"/><path d="M24.994 8.911a1.85 1.85 0 10-3.698.01 1.85 1.85 0 003.698-.01z" fill="#FF7363"/><path d="M21.296 8.92c.002.57.26 1.08.668 1.418a1.848 1.848 0 00-.007-2.838c-.404.34-.662.851-.66 1.42z" fill="red"/><defs><linearGradient id="paint0_linear_5276_5780" x1="14.041" y1="4.481" x2="14.041" y2="23.642" gradientUnits="userSpaceOnUse"><stop stop-color="#E000FA"/><stop offset=".25" stop-color="#C400EF"/><stop offset=".52" stop-color="#AD00E6"/><stop offset=".78" stop-color="#9F00E1"/><stop offset="1" stop-color="#9B00E0"/></linearGradient><linearGradient id="paint1_linear_5276_5780" x1="22.689" y1="14.436" x2="22.689" y2="17.541" gradientUnits="userSpaceOnUse"><stop stop-color="#F0F0F0"/><stop offset=".46" stop-color="#DFDFDF"/><stop offset="1" stop-color="#C8C8C8"/></linearGradient></defs></svg>