<svg width="80" height="80" fill="none" xmlns="http://www.w3.org/2000/svg"><path d="M52.87 69.624V10.48a3.55 3.55 0 00-3.553-3.547h-37.23a3.55 3.55 0 00-3.552 3.547v59.144a3.55 3.55 0 003.553 3.546h37.229a3.55 3.55 0 003.552-3.546z" fill="#820AD1"/><mask id="a" style="mask-type:alpha" maskUnits="userSpaceOnUse" x="8" y="6" width="45" height="68"><path d="M52.868 69.624V10.48a3.55 3.55 0 00-3.553-3.547h-37.23a3.55 3.55 0 00-3.552 3.547v59.144a3.55 3.55 0 003.553 3.546h37.23a3.55 3.55 0 003.552-3.546z" fill="url(#paint0_linear_5507_1263)"/></mask><g mask="url(#a)"><path d="M52.868 69.624V10.48a3.55 3.55 0 00-3.553-3.547h-37.23a3.55 3.55 0 00-3.552 3.547v59.144a3.55 3.55 0 003.553 3.546h37.23a3.55 3.55 0 003.552-3.546z" fill="#AA68FF"/></g><path d="M26.416 17.463a4.577 4.577 0 01-4.576 4.573c-.833 0-1.62-.218-2.294-.613a4.547 4.547 0 002.288-3.96 4.562 4.562 0 00-2.293-3.954 4.556 4.556 0 012.287-.614 4.578 4.578 0 014.588 4.568z" fill="#F3D58D"/><path d="M21.834 17.463a4.547 4.547 0 01-2.287 3.96 4.562 4.562 0 01-2.288-3.954 4.555 4.555 0 012.282-3.96 4.563 4.563 0 012.293 3.954z" fill="#EA9C68"/><path d="M19.547 21.423a4.502 4.502 0 01-2.288.62c-2.524 0-4.581-2.043-4.581-4.568a4.569 4.569 0 014.575-4.574c.834 0 1.614.218 2.288.608a4.554 4.554 0 00-2.282 3.96c0 1.688.922 3.169 2.288 3.954z" fill="#EE7067"/><path d="M37.334 52.613c0-1.208.976-2.187 2.181-2.187h24.437c1.205 0 2.181.98 2.181 2.187v13.999c0 3.624-2.93 6.561-6.545 6.561H43.879c-3.615 0-6.545-2.938-6.545-6.561V52.613z" fill="#fff"/><mask id="b" style="mask-type:alpha" maskUnits="userSpaceOnUse" x="37" y="50" width="30" height="24"><path d="M37.334 52.613c0-1.208.976-2.187 2.181-2.187h24.437c1.205 0 2.181.98 2.181 2.187v13.999c0 3.624-2.93 6.561-6.545 6.561H43.879c-3.615 0-6.545-2.938-6.545-6.561V52.613z" fill="url(#paint1_linear_5507_1263)"/></mask><g mask="url(#b)"><path d="M37.334 52.613c0-1.208.976-2.187 2.181-2.187h24.437c1.205 0 2.181.98 2.181 2.187v13.999c0 3.624-2.93 6.561-6.545 6.561H43.879c-3.615 0-6.545-2.938-6.545-6.561V52.613z" fill="#B7B7B7"/></g><path fill-rule="evenodd" clip-rule="evenodd" d="M51.733 34.24c-5.301 0-9.6 4.309-9.6 9.624v6.124c0 .147.004.293.01.438h3.497a6.213 6.213 0 01-.016-.438v-6.124c0-3.382 2.736-6.124 6.11-6.124 3.373 0 6.109 2.742 6.109 6.124v6.124c0 .147-.006.293-.016.438h3.497c.006-.145.01-.291.01-.438v-6.124c0-5.315-4.299-9.624-9.6-9.624z" fill="#AA68FF"/><ellipse cx="51.734" cy="59.612" rx="3.491" ry="3.5" fill="#820AD1"/><path d="M49.552 60.05h4.363v3.942a2.182 2.182 0 11-4.363 0V60.05z" fill="#820AD1"/><mask id="c" style="mask-type:alpha" maskUnits="userSpaceOnUse" x="37" y="34" width="30" height="40"><path fill-rule="evenodd" clip-rule="evenodd" d="M51.733 34.24c-5.301 0-9.6 4.309-9.6 9.624v6.124c0 .147.004.293.01.438h3.497a6.213 6.213 0 01-.016-.438v-6.124c0-3.382 2.736-6.124 6.11-6.124 3.373 0 6.109 2.742 6.109 6.124v6.124c0 .147-.006.293-.016.438h3.497c.006-.145.01-.291.01-.438v-6.124c0-5.315-4.299-9.624-9.6-9.624z" fill="#AA68FF"/></mask><g filter="url(#filter0_f_5507_1263)" mask="url(#c)"><path d="M54.4 69.526V10.474a3.544 3.544 0 00-3.547-3.54H13.682a3.544 3.544 0 00-3.547 3.54v59.052a3.544 3.544 0 003.547 3.54h37.171a3.544 3.544 0 003.547-3.54z" fill="#CEBAF4"/></g><defs><linearGradient id="paint0_linear_5507_1263" x1="30.701" y1="8.955" x2="30.701" y2="71.042" gradientUnits="userSpaceOnUse"><stop/><stop offset="1" stop-opacity="0"/></linearGradient><linearGradient id="paint1_linear_5507_1263" x1="37.334" y1="60.05" x2="66.133" y2="60.05" gradientUnits="userSpaceOnUse"><stop/><stop offset="1" stop-opacity=".3"/></linearGradient><filter id="filter0_f_5507_1263" x="5.135" y="1.933" width="54.265" height="76.133" filterUnits="userSpaceOnUse" color-interpolation-filters="sRGB"><feFlood flood-opacity="0" result="BackgroundImageFix"/><feBlend in="SourceGraphic" in2="BackgroundImageFix" result="shape"/><feGaussianBlur stdDeviation="2.5" result="effect1_foregroundBlur_5507_1263"/></filter></defs></svg>