<svg width="90" height="90" fill="none" xmlns="http://www.w3.org/2000/svg"><path d="M72.594 40.789c8.61 0 15.595-6.984 15.595-15.595 0-8.61-6.984-15.594-15.595-15.594C63.984 9.6 57 16.584 57 25.194S63.984 40.79 72.594 40.79z" fill="#00AA1E"/><path fill-rule="evenodd" clip-rule="evenodd" d="M81.605 21.191L70.292 32.169l-6.153-6.078 1.594-1.611 4.57 4.52 9.72-9.436 1.582 1.627z" fill="#fff"/><path d="M29.214 15H3.784a2.576 2.576 0 00-2.585 2.566v33.268A2.576 2.576 0 003.784 53.4h25.43a2.576 2.576 0 002.585-2.566V17.566A2.576 2.576 0 0029.214 15z" fill="#B7B7B7"/><mask id="a" style="mask-type:alpha" maskUnits="userSpaceOnUse" x="1" y="15" width="31" height="39"><path d="M29.214 15H3.784a2.576 2.576 0 00-2.585 2.566v33.268A2.576 2.576 0 003.784 53.4h25.43a2.576 2.576 0 002.585-2.566V17.566A2.576 2.576 0 0029.214 15z" fill="url(#paint0_linear_5508_1555)"/></mask><g mask="url(#a)"><path d="M29.214 15H3.784a2.576 2.576 0 00-2.585 2.566v33.268A2.576 2.576 0 003.784 53.4h25.43a2.576 2.576 0 002.585-2.566V17.566A2.576 2.576 0 0029.214 15z" fill="#fff"/></g><path d="M6.998 22.759h14.768M6.998 26.381h13.346M6.998 30.01H24.64M6.998 33.626h14.768" stroke="#fff" stroke-width="1.25"/><path d="M17.607 39.486h-1.34v5.54h1.34v-5.54zm2.948 0h-1.34v5.54h1.34v-5.54zm-12.217 0h-1.34v5.54h1.34v-5.54zm17.652 0h-3.58v5.54h3.58v-5.54zm-11.267 0H9.829v5.54h4.893v-5.54z" fill="#9B9B9B"/><path d="M61.332 31.2H30.166A3.168 3.168 0 0027 34.368v41.064a3.168 3.168 0 003.168 3.168h31.165a3.168 3.168 0 003.168-3.168V34.368a3.168 3.168 0 00-3.168-3.168z" fill="#CEBAF4"/><mask id="b" style="mask-type:alpha" maskUnits="userSpaceOnUse" x="26" y="31" width="39" height="48"><path d="M61.332 31.2H30.166A3.168 3.168 0 0027 34.368v41.064a3.168 3.168 0 003.168 3.168h31.165a3.168 3.168 0 003.168-3.168V34.368a3.168 3.168 0 00-3.168-3.168z" fill="url(#paint1_linear_5508_1555)"/></mask><g mask="url(#b)"><path d="M61.332 31.2H30.166A3.168 3.168 0 0027 34.368v41.064a3.168 3.168 0 003.168 3.168h31.165a3.168 3.168 0 003.168-3.168V34.368a3.168 3.168 0 00-3.168-3.168z" fill="#DCDAEA"/></g><path d="M34.106 40.777h18.098m-18.098 4.472h16.356m-16.356 4.479h21.62m-21.62 4.462h18.098" stroke="#fff" stroke-width="2"/><path d="M47.107 61.425h-1.642v6.838h1.642v-6.838zm3.613 0h-1.642v6.838h1.642v-6.838zm-14.972 0h-1.642v6.838h1.642v-6.838zm21.632 0h-4.387v6.838h4.387v-6.838zm-13.808 0h-5.998v6.838h5.998v-6.838z" fill="#820AD1"/><g opacity=".6"><mask id="c" style="mask-type:alpha" maskUnits="userSpaceOnUse" x="27" y="31" width="38" height="48"><path d="M61.333 31.2H30.168A3.168 3.168 0 0027 34.368v41.064a3.168 3.168 0 003.168 3.168h31.165a3.168 3.168 0 003.168-3.168V34.368a3.168 3.168 0 00-3.168-3.168z" fill="#CEBAF4"/></mask><g mask="url(#c)"><g filter="url(#filter0_f_5508_1555)"><path d="M71.394 42.589c8.611 0 15.595-6.984 15.595-15.595 0-8.61-6.984-15.594-15.595-15.594-8.61 0-15.594 6.984-15.594 15.594S62.784 42.59 71.394 42.59z" fill="#00AA1E"/></g><g filter="url(#filter1_f_5508_1555)"><path d="M31.8 15.54H4.914a2.73 2.73 0 00-2.73 2.73v35.424a2.73 2.73 0 002.73 2.73H31.8a2.73 2.73 0 002.73-2.73V18.27a2.73 2.73 0 00-2.73-2.73z" fill="#B7B7B7"/></g></g></g><defs><linearGradient id="paint0_linear_5508_1555" x1="29.999" y1="63" x2="2.707" y2="16.101" gradientUnits="userSpaceOnUse"><stop/><stop offset="1" stop-opacity="0"/></linearGradient><linearGradient id="paint1_linear_5508_1555" x1="62.133" y1="76.54" x2="28.446" y2="32.794" gradientUnits="userSpaceOnUse"><stop/><stop offset="1" stop-opacity="0"/></linearGradient><filter id="filter0_f_5508_1555" x="50.8" y="6.4" width="41.189" height="41.189" filterUnits="userSpaceOnUse" color-interpolation-filters="sRGB"><feFlood flood-opacity="0" result="BackgroundImageFix"/><feBlend in="SourceGraphic" in2="BackgroundImageFix" result="shape"/><feGaussianBlur stdDeviation="2.5" result="effect1_foregroundBlur_5508_1555"/></filter><filter id="filter1_f_5508_1555" x="-2.816" y="10.54" width="42.346" height="50.884" filterUnits="userSpaceOnUse" color-interpolation-filters="sRGB"><feFlood flood-opacity="0" result="BackgroundImageFix"/><feBlend in="SourceGraphic" in2="BackgroundImageFix" result="shape"/><feGaussianBlur stdDeviation="2.5" result="effect1_foregroundBlur_5508_1555"/></filter></defs></svg>